# xmcd
#
# Track frame offsets:
#	150
#	15240
#	29662
#	45635
#	60340
#	72633
#	87732
#	102362
#	117177
#	133812
#	149856
#	168181
#	180669
#	192553
#	211934
#	228874
#	245053
#	260089
#
# Disc length: 3669 seconds
#
# Revision: 0
# Processed by: cddbd v1.5.2PL0 Copyright (c) Steve Scherf et al.
# Submitted via: EZCDAudioConverter 3.1.2.1
#
DISCID=120e5312
DTITLE=DJ Promotion CD Pool Polska 221
DYEAR=2018
DGENRE=
TTITLE0=Cleo - Film (Radio Mix)
TTITLE1=Ania Dąbrowska - Serce nie sługa (Radio Mix)
TTITLE2=Ewa Farna - Interakcja (Radio Mix)
TTITLE3=Sarsa - Zakryj (Radio Edit)
TTITLE4=Patryk Kumór feat. kaen - Skok na bank (Radio Edit)
TTITLE5=Bandura X Hellfield - Maraton (Radio Mix)
TTITLE6=Baranovski - Luźno (Radio Mix)
TTITLE7=Filip Lato - Krawiec (radio edit)
TTITLE8=Anna Jurksztowicz - Mój książe (Radio Mix)
TTITLE9=Bajm - Myśli i słowa (Radio Mix)
TTITLE10=Maciej Maleńczuk - French Love (Radio Mix)
TTITLE11=Michał Szpak - Rainbow (Radio Edit)
TTITLE12=Robert Janowski - Zakochani są wśród Nas (Album Version)
TTITLE13=Andrzej Krzywy - Nie pytaj o Polskę (Album Version)
TTITLE14=Ptakova - Czar (Piona Remix)
TTITLE15=Julia Jaroszewska - Nie zapomnę Cię (Radio Edit)
TTITLE16=Patrycja Roszczyk - Dziś Ciebie mam (Radio Mix)
TTITLE17=Zagi - Drapacz chmur (The Foxes Remix)
EXTD=
EXTT0=
EXTT1=
EXTT2=
EXTT3=
EXTT4=
EXTT5=
EXTT6=
EXTT7=
EXTT8=
EXTT9=
EXTT10=
EXTT11=
EXTT12=
EXTT13=
EXTT14=
EXTT15=
EXTT16=
EXTT17=
PLAYORDER=
